:SAMPLES-PER-SECOND 30
:FULLY-SPECIFIED
:DEGREES
1443
root  -17.9584 39.8134 -1.35536 -92.3713 -86.8455 85.2027
RightUpLeg  -7.85671 -11.0705 -12.4126
RightLeg  54.394 -5.65729 -8.81959
RightFoot  -1.4646 -0.454198 5.16877
RightToes  0.00048216 0.542163 -0.142577
Spine  24.1845 -0.243999 -3.57186
Spine1  6.4592 -0.956304 -0.0366251
HEad  -15.4037 4.65809 -4.93533
LeftShoulder1  10.2809 -15.0256 -48.4405
LeftArm  -10.666 21.9952 -23.2563
LeftForeArm  27.4434 -28.2338 -4.60676
LeftHand  -0.25398 0.0180481 5.50724
RightShoulder  5.42749 9.57434 35.5304
RightArm  1.18162 -11.2991 36.1696
RightForeArm  -6.67065 30.1345 6.9272
RightHand  -3.53563 9.17417 -28.0768
LeftUpLeg  -10.0444 13.3514 -4.56568
LeftLeg  14.1917 8.78448 0.26353
LeftFoot  0.867912 -0.644494 5.97474
LeftToes  1.06245e-005 4.65856e-005 -8.18504e-006
1444
root  -17.0162 39.56 -1.54658 -97.493 -85.8929 90.3253
RightUpLeg  -3.15201 -9.58521 -14.1191
RightLeg  54.0473 -4.04733 -6.39226
RightFoot  0.617058 -0.579015 5.47973
RightToes  0.00048216 0.542163 -0.142577
Spine  22.0841 0.18816 -3.97334
Spine1  6.85287 -0.368872 -0.501984
HEad  -14.8321 3.58703 -4.86631
LeftShoulder1  10.1835 -14.8621 -48.4084
LeftArm  -10.4547 22.5158 -23.3261
LeftForeArm  26.8865 -27.1144 -4.38845
LeftHand  -0.25398 0.0180481 5.50724
RightShoulder  5.42399 9.52474 35.6583
RightArm  -0.731703 -9.88788 35.9414
RightForeArm  -6.48502 31.7028 7.32375
RightHand  -3.83913 9.89448 -28.9932
LeftUpLeg  -11.6907 13.5292 -5.57127
LeftLeg  14.2041 9.13835 0.368256
LeftFoot  2.00507 -0.711494 5.97277
LeftToes  1.06245e-005 4.65856e-005 -8.18504e-006
1445
root  -15.9973 39.2581 -1.77241 -101.568 -85.2177 93.8243
RightUpLeg  2.68572 -7.94787 -15.2909
RightLeg  50.9415 -1.59796 -2.51668
RightFoot  2.07773 -0.992445 8.58198
RightToes  0.00048216 0.542163 -0.142577
Spine  21.0306 0.61446 -3.52933
Spine1  7.10797 0.446119 -1.53117
HEad  -14.279 2.28826 -4.82594
LeftShoulder1  10.0771 -14.7375 -48.2279
LeftArm  -10.5197 22.6975 -23.4284
LeftForeArm  26.1539 -25.9165 -4.16669
LeftHand  -0.25398 0.0180481 5.50724
RightShoulder  5.42589 9.48335 35.8025
RightArm  -1.98051 -8.61363 35.9679
RightForeArm  -6.95588 32.4198 7.54048
RightHand  -4.07363 10.409 -29.7227
LeftUpLeg  -13.2279 14.7183 -6.30253
LeftLeg  14.971 8.48416 0.767866
LeftFoot  2.6792 -0.699009 5.54851
LeftToes  1.06245e-005 4.65856e-005 -8.18504e-006
1446
root  -14.9385 38.9814 -2.00157 -105.647 -84.5024 97.7814
RightUpLeg  8.2148 -6.41895 -16.0544
RightLeg  45.2999 1.19597 0.960139
RightFoot  -1.21517 -1.09506 12.4121
RightToes  0.00048216 0.542163 -0.142577
Spine  19.7773 1.048 -2.72133
Spine1  7.17009 1.36963 -2.54609
HEad  -13.675 1.0234 -5.01837
LeftShoulder1  9.95435 -14.6269 -47.9274
LeftArm  -10.8 22.9848 -23.5876
LeftForeArm  25.4088 -25.0536 -4.02121
LeftHand  -0.25398 0.0180481 5.50724
RightShoulder  5.36306 9.36199 35.7101
RightArm  -2.30957 -7.64517 36.3708
RightForeArm  -7.75761 32.6283 7.6396
RightHand  -4.10148 10.3654 -29.9911
LeftUpLeg  -14.9368 14.9837 -6.95371
LeftLeg  14.9118 8.68301 1.00111
LeftFoot  3.85075 -0.677418 4.90627
LeftToes  1.06245e-005 4.65856e-005 -8.18504e-006
1447
root  -13.7934 38.7365 -2.22808 -111.869 -83.9061 104.38
RightUpLeg  12.4277 -5.06968 -15.8898
RightLeg  38.0875 3.06668 2.33843
RightFoot  -9.80146 -0.273273 14.3014
RightToes  0.00048216 0.542163 -0.142577
Spine  18.6079 1.41762 -1.43991
Spine1  7.06041 2.30287 -3.52527
HEad  -13.5593 0.0941024 -5.73091
LeftShoulder1  9.84123 -14.4681 -47.7999
LeftArm  -11.573 23.2689 -23.6016
LeftForeArm  25.0458 -24.833 -3.99366
LeftHand  -0.25398 0.0180481 5.50724
RightShoulder  5.30894 9.27331 35.579
RightArm  -1.84127 -6.70298 36.8595
RightForeArm  -8.0446 32.7821 7.69655
RightHand  -3.81666 9.59445 -29.3676
LeftUpLeg  -16.8325 14.1081 -7.06466
LeftLeg  14.0596 10.2216 1.01207
LeftFoot  5.48704 -0.653001 4.18769
LeftToes  1.06245e-005 4.65856e-005 -8.18504e-006
1448
root  -12.4844 38.5582 -2.46769 -119.633 -83.7781 112.501
RightUpLeg  14.7305 -4.36824 -14.3585
RightLeg  31.169 2.423 1.36956
RightFoot  -18.6222 0.685037 12.9362
RightToes  0.00048216 0.542163 -0.142577
Spine  18.2956 1.51291 0.568289
Spine1  7.26576 3.05331 -4.68732
HEad  -14.6697 -0.392946 -6.88086
LeftShoulder1  9.79875 -14.3015 -48.0419
LeftArm  -12.766 22.9868 -23.3598
LeftForeArm  25.206 -25.0001 -4.02068
LeftHand  -0.25398 0.0180481 5.50724
RightShoulder  5.36249 9.37184 35.6743
RightArm  -1.0488 -5.32168 37.1656
RightForeArm  -7.20516 32.7764 7.65034
RightHand  -3.36504 8.49918 -28.0046
LeftUpLeg  -18.3036 12.3797 -5.96229
LeftLeg  12.5702 13.0079 0.517476
LeftFoot  6.10927 -0.59255 3.61736
LeftToes  1.06245e-005 4.65856e-005 -8.18504e-006
